<svg class="border shadow-md" viewBox="0 0 1199.1466666666668 899.36" style="width: 1199.15px; height: 899.36px;" xmlns="http://www.w3.org/2000/svg" preserveAspectRatio="none"><rect class="bg" id="bg" x="0" y="0" width="1199.1466666666668" height="899.36" fill="#ffffff"/><g transform="rotate(0 599.5733333333334 449.68)"><path d="M -233.19 -7.47 S -126.60 -26.21&#10;            0.00 -7.47 -6.81 -26.47&#10;            233.19 -7.47 245.38 -35.47&#10;            466.38 -7.47 572.98 -32.47&#10;            699.57 -7.47 806.17 -31.47&#10;            932.76 -7.47 1039.36 -26.21&#10;            1165.96 -7.47 1272.55 -38.47&#10;            1399.15 -7.47 1505.74 -27.47&#10;            1632.34 -7.47 h 110 V 1099.3600000000001 H -233.19 Z" fill="#1BA4FF" id="-1"/><path d="M -233.19 30.00 S -171.00 2.00&#10;            0.00 30.00 97.19 11.26&#10;            233.19 30.00 315.38 11.26&#10;            466.38 30.00 568.57 11.26&#10;            699.57 30.00 806.17 10.00&#10;            932.76 30.00 935.96 3.00&#10;            1165.96 30.00 1215.15 -2.00&#10;            1399.15 30.00 1505.74 3.00&#10;            1632.34 30.00 h 110 V 1099.3600000000001 H -233.19 Z" fill="#1b9ef9" id="0"/><path d="M -233.19 67.47 S -154.00 48.47&#10;            0.00 67.47 106.60 48.74&#10;            233.19 67.47 339.79 42.47&#10;            466.38 67.47 572.98 48.74&#10;            699.57 67.47 774.76 48.74&#10;            932.76 67.47 1039.36 38.47&#10;            1165.96 67.47 1272.55 48.74&#10;            1399.15 67.47 1505.74 48.74&#10;            1632.34 67.47 h 110 V 1099.3600000000001 H -233.19 Z" fill="#1b98f3" id="1"/><path d="M -233.19 104.95 S -126.60 86.21&#10;            0.00 104.95 106.60 81.95&#10;            233.19 104.95 339.79 86.21&#10;            466.38 104.95 572.98 84.95&#10;            699.57 104.95 760.76 74.95&#10;            932.76 104.95 1024.96 68.95&#10;            1165.96 104.95 1213.15 79.95&#10;            1399.15 104.95 1505.74 86.21&#10;            1632.34 104.95 h 110 V 1099.3600000000001 H -233.19 Z" fill="#1b92ed" id="2"/><path d="M -233.19 142.42 S -126.60 123.68&#10;            0.00 142.42 106.60 112.42&#10;            233.19 142.42 339.79 119.42&#10;            466.38 142.42 572.98 106.42&#10;            699.57 142.42 806.17 123.68&#10;            932.76 142.42 1039.36 121.42&#10;            1165.96 142.42 1206.15 116.42&#10;            1399.15 142.42 1468.34 113.42&#10;            1632.34 142.42 h 110 V 1099.3600000000001 H -233.19 Z" fill="#1b8ce7" id="3"/><path d="M -233.19 179.89 S -126.60 156.89&#10;            0.00 179.89 106.60 156.89&#10;            233.19 179.89 301.38 161.16&#10;            466.38 179.89 481.57 157.89&#10;            699.57 179.89 726.76 161.16&#10;            932.76 179.89 1039.36 160.89&#10;            1165.96 179.89 1183.15 142.89&#10;            1399.15 179.89 1425.34 161.16&#10;            1632.34 179.89 h 110 V 1099.3600000000001 H -233.19 Z" fill="#1b86e1" id="4"/><path d="M -233.19 217.37 S -166.00 198.63&#10;            0.00 217.37 45.19 198.63&#10;            233.19 217.37 339.79 198.63&#10;            466.38 217.37 572.98 198.63&#10;            699.57 217.37 720.76 190.37&#10;            932.76 217.37 1039.36 182.37&#10;            1165.96 217.37 1272.55 198.63&#10;            1399.15 217.37 1393.34 191.37&#10;            1632.34 217.37 h 110 V 1099.3600000000001 H -233.19 Z" fill="#1b80db" id="5"/><path d="M -233.19 254.84 S -126.60 236.10&#10;            0.00 254.84 106.60 220.84&#10;            233.19 254.84 230.38 236.10&#10;            466.38 254.84 572.98 236.10&#10;            699.57 254.84 806.17 236.10&#10;            932.76 254.84 1002.96 236.10&#10;            1165.96 254.84 1272.55 220.84&#10;            1399.15 254.84 1455.34 225.84&#10;            1632.34 254.84 h 110 V 1099.3600000000001 H -233.19 Z" fill="#1b7ad5" id="6"/><path d="M -233.19 292.31 S -126.60 273.58&#10;            0.00 292.31 54.19 273.58&#10;            233.19 292.31 266.38 273.58&#10;            466.38 292.31 572.98 273.58&#10;            699.57 292.31 749.76 273.58&#10;            932.76 292.31 1015.96 264.31&#10;            1165.96 292.31 1272.55 273.58&#10;            1399.15 292.31 1438.34 273.58&#10;            1632.34 292.31 h 110 V 1099.3600000000001 H -233.19 Z" fill="#1b74cf" id="7"/><path d="M -233.19 329.79 S -126.60 311.05&#10;            0.00 329.79 106.60 311.05&#10;            233.19 329.79 323.38 297.79&#10;            466.38 329.79 531.57 311.05&#10;            699.57 329.79 795.76 311.05&#10;            932.76 329.79 1039.36 311.05&#10;            1165.96 329.79 1272.55 293.79&#10;            1399.15 329.79 1505.74 310.79&#10;            1632.34 329.79 h 110 V 1099.3600000000001 H -233.19 Z" fill="#1b6ec9" id="8"/><path d="M -233.19 367.26 S -126.60 348.52&#10;            0.00 367.26 28.19 336.26&#10;            233.19 367.26 339.79 348.52&#10;            466.38 367.26 572.98 340.26&#10;            699.57 367.26 778.76 339.26&#10;            932.76 367.26 1004.96 339.26&#10;            1165.96 367.26 1236.15 348.52&#10;            1399.15 367.26 1473.34 348.52&#10;            1632.34 367.26 h 110 V 1099.3600000000001 H -233.19 Z" fill="#1b68c3" id="9"/><path d="M -233.19 404.73 S -225.00 386.00&#10;            0.00 404.73 106.60 386.00&#10;            233.19 404.73 322.38 381.73&#10;            466.38 404.73 572.98 368.73&#10;            699.57 404.73 806.17 383.73&#10;            932.76 404.73 961.96 386.00&#10;            1165.96 404.73 1272.55 386.00&#10;            1399.15 404.73 1505.74 386.00&#10;            1632.34 404.73 h 110 V 1099.3600000000001 H -233.19 Z" fill="#1b62bd" id="10"/><path d="M -233.19 442.21 S -126.60 423.47&#10;            0.00 442.21 0.19 419.21&#10;            233.19 442.21 339.79 423.47&#10;            466.38 442.21 572.98 423.47&#10;            699.57 442.21 702.76 410.21&#10;            932.76 442.21 1039.36 423.47&#10;            1165.96 442.21 1272.55 423.47&#10;            1399.15 442.21 1505.74 423.47&#10;            1632.34 442.21 h 110 V 1099.3600000000001 H -233.19 Z" fill="#1b5cb7" id="11"/><path d="M -233.19 479.68 S -144.00 443.68&#10;            0.00 479.68 58.19 460.94&#10;            233.19 479.68 339.79 460.94&#10;            466.38 479.68 572.98 460.94&#10;            699.57 479.68 742.76 460.94&#10;            932.76 479.68 1039.36 460.94&#10;            1165.96 479.68 1272.55 460.94&#10;            1399.15 479.68 1505.74 451.68&#10;            1632.34 479.68 h 110 V 1099.3600000000001 H -233.19 Z" fill="#1b56b1" id="12"/><path d="M -233.19 517.15 S -126.60 492.15&#10;            0.00 517.15 49.19 493.15&#10;            233.19 517.15 339.79 498.42&#10;            466.38 517.15 572.98 498.42&#10;            699.57 517.15 806.17 489.15&#10;            932.76 517.15 935.96 485.15&#10;            1165.96 517.15 1160.15 498.42&#10;            1399.15 517.15 1505.74 498.42&#10;            1632.34 517.15 h 110 V 1099.3600000000001 H -233.19 Z" fill="#1b50ab" id="13"/><path d="M -233.19 554.63 S -126.60 535.89&#10;            0.00 554.63 106.60 533.63&#10;            233.19 554.63 334.38 535.63&#10;            466.38 554.63 491.57 535.89&#10;            699.57 554.63 753.76 535.89&#10;            932.76 554.63 1039.36 535.89&#10;            1165.96 554.63 1272.55 522.63&#10;            1399.15 554.63 1505.74 535.89&#10;            1632.34 554.63 h 110 V 1099.3600000000001 H -233.19 Z" fill="#1b4aa5" id="14"/><path d="M -233.19 592.10 S -131.00 572.10&#10;            0.00 592.10 106.60 571.10&#10;            233.19 592.10 254.38 573.36&#10;            466.38 592.10 545.57 573.36&#10;            699.57 592.10 806.17 562.10&#10;            932.76 592.10 1029.96 563.10&#10;            1165.96 592.10 1272.55 573.36&#10;            1399.15 592.10 1505.74 561.10&#10;            1632.34 592.10 h 110 V 1099.3600000000001 H -233.19 Z" fill="#1b449f" id="15"/><path d="M -233.19 629.57 S -135.00 610.84&#10;            0.00 629.57 32.19 610.84&#10;            233.19 629.57 339.79 610.84&#10;            466.38 629.57 572.98 592.57&#10;            699.57 629.57 806.17 597.57&#10;            932.76 629.57 1039.36 600.57&#10;            1165.96 629.57 1272.55 610.84&#10;            1399.15 629.57 1505.74 610.84&#10;            1632.34 629.57 h 110 V 1099.3600000000001 H -233.19 Z" fill="#1b3e99" id="16"/><path d="M -233.19 667.05 S -126.60 643.05&#10;            0.00 667.05 106.60 643.05&#10;            233.19 667.05 323.38 631.05&#10;            466.38 667.05 572.98 648.31&#10;            699.57 667.05 732.76 642.05&#10;            932.76 667.05 961.96 648.31&#10;            1165.96 667.05 1198.15 638.05&#10;            1399.15 667.05 1505.74 646.05&#10;            1632.34 667.05 h 110 V 1099.3600000000001 H -233.19 Z" fill="#1b3893" id="17"/><path d="M -233.19 704.52 S -153.00 685.52&#10;            0.00 704.52 106.60 685.78&#10;            233.19 704.52 269.38 685.78&#10;            466.38 704.52 470.57 681.52&#10;            699.57 704.52 716.76 677.52&#10;            932.76 704.52 1039.36 685.78&#10;            1165.96 704.52 1256.15 685.78&#10;            1399.15 704.52 1393.34 680.52&#10;            1632.34 704.52 h 110 V 1099.3600000000001 H -233.19 Z" fill="#1b328d" id="18"/><path d="M -233.19 741.99 S -134.00 706.99&#10;            0.00 741.99 106.60 715.99&#10;            233.19 741.99 339.79 709.99&#10;            466.38 741.99 462.57 723.26&#10;            699.57 741.99 806.17 716.99&#10;            932.76 741.99 1039.36 715.99&#10;            1165.96 741.99 1272.15 723.26&#10;            1399.15 741.99 1505.74 719.99&#10;            1632.34 741.99 h 110 V 1099.3600000000001 H -233.19 Z" fill="#1b2c87" id="19"/><path d="M -233.19 779.47 S -126.60 760.73&#10;            0.00 779.47 13.19 745.47&#10;            233.19 779.47 339.79 760.73&#10;            466.38 779.47 572.98 760.73&#10;            699.57 779.47 759.76 749.47&#10;            932.76 779.47 1039.36 753.47&#10;            1165.96 779.47 1272.55 753.47&#10;            1399.15 779.47 1500.34 743.47&#10;            1632.34 779.47 h 110 V 1099.3600000000001 H -233.19 Z" fill="#1b2681" id="20"/><path d="M -233.19 816.94 S -126.60 798.20&#10;            0.00 816.94 6.19 780.94&#10;            233.19 816.94 339.79 798.20&#10;            466.38 816.94 572.98 789.94&#10;            699.57 816.94 806.17 788.94&#10;            932.76 816.94 955.96 782.94&#10;            1165.96 816.94 1272.55 798.20&#10;            1399.15 816.94 1505.74 798.20&#10;            1632.34 816.94 h 110 V 1099.3600000000001 H -233.19 Z" fill="#1b207b" id="21"/><path d="M -233.19 854.41 S -126.60 818.41&#10;            0.00 854.41 22.19 822.41&#10;            233.19 854.41 302.38 824.41&#10;            466.38 854.41 481.57 821.41&#10;            699.57 854.41 715.76 835.68&#10;            932.76 854.41 932.96 833.41&#10;            1165.96 854.41 1174.15 835.68&#10;            1399.15 854.41 1505.74 835.68&#10;            1632.34 854.41 h 110 V 1099.3600000000001 H -233.19 Z" fill="#1b1a75" id="22"/><path d="M -233.19 891.89 S -230.00 873.15&#10;            0.00 891.89 106.60 860.89&#10;            233.19 891.89 266.38 873.15&#10;            466.38 891.89 572.98 873.15&#10;            699.57 891.89 690.76 861.89&#10;            932.76 891.89 1039.36 873.15&#10;            1165.96 891.89 1221.15 873.15&#10;            1399.15 891.89 1466.34 860.89&#10;            1632.34 891.89 h 110 V 1099.3600000000001 H -233.19 Z" fill="#1b146f" id="23"/></g></svg>