<?xml version="1.0" standalone="no"?>
<!DOCTYPE svg PUBLIC "-//W3C//DTD SVG 20010904//EN"
 "http://www.w3.org/TR/2001/REC-SVG-20010904/DTD/svg10.dtd">
<svg version="1.0" xmlns="http://www.w3.org/2000/svg"
 width="375.000000pt" height="375.000000pt" viewBox="0 0 375.000000 375.000000"
 preserveAspectRatio="xMidYMid meet">

<g transform="translate(0.000000,375.000000) scale(0.100000,-0.100000)"
fill="#000000" stroke="none">
<path d="M3550 2263 c-90 -14 -177 -38 -255 -70 -102 -41 -137 -61 -129 -74 3
-5 -3 -6 -12 -2 -11 4 -15 3 -10 -5 3 -6 2 -13 -4 -17 -5 -3 -10 -1 -10 5 0 6
-27 -10 -60 -35 -49 -38 -59 -50 -49 -61 6 -7 16 -11 22 -7 6 3 7 1 3 -6 -5
-8 -12 -8 -27 2 -18 13 -24 10 -66 -30 -25 -25 -57 -49 -69 -53 -22 -9 -77
-13 -119 -8 -11 1 -40 0 -65 -2 -41 -3 -39 -4 25 -10 39 -4 89 -7 113 -6 30 2
41 -1 38 -10 -3 -8 2 -10 16 -6 11 2 22 10 24 17 3 7 16 10 29 7 36 -6 81 18
97 52 13 29 24 38 63 51 l20 7 -20 8 c-18 7 -17 9 10 20 16 6 38 19 47 27 14
13 18 13 18 3 0 -11 2 -12 13 -1 10 10 8 15 -7 27 -11 8 -15 14 -9 14 6 0 16
12 21 28 9 22 11 23 11 7 1 -12 -4 -26 -11 -33 -20 -20 27 -15 64 7 17 11 35
18 40 15 4 -3 8 0 8 6 0 6 3 9 8 7 4 -2 15 4 24 14 16 17 15 18 -10 28 -26 9
-26 10 8 7 19 -2 36 -8 38 -15 5 -15 29 -14 39 3 5 9 31 16 68 19 122 10 192
27 188 46 -2 6 11 11 33 11 21 0 33 4 29 10 -6 10 -132 12 -185 3z m70 -13
c-19 -6 -21 -8 -6 -9 11 -1 17 -4 13 -7 -3 -4 -14 -3 -24 1 -10 5 -25 7 -33 6
-13 -2 -13 -1 0 8 8 6 29 10 45 10 29 -1 29 -1 5 -9z m-550 -220 c0 -5 -5 -10
-11 -10 -5 0 -7 5 -4 10 3 6 8 10 11 10 2 0 4 -4 4 -10z m-46 -95 c-7 -16 -24
-21 -24 -6 0 8 7 13 27 20 1 1 0 -6 -3 -14z m-41 -5 c7 0 7 -4 -1 -12 -10 -10
-15 -10 -20 -1 -5 8 -13 9 -22 3 -24 -15 -36 -11 -14 5 10 8 25 12 32 10 8 -3
19 -5 25 -5z"/>
<path d="M2053 2005 c-75 -14 -147 -47 -200 -94 -32 -27 -45 -50 -22 -35 7 4
7 -1 -1 -16 -6 -12 -18 -19 -25 -16 -7 2 -21 -6 -29 -19 -9 -13 -36 -49 -61
-80 -25 -31 -43 -60 -40 -65 3 -5 0 -12 -6 -16 -8 -4 -9 -3 -5 4 11 18 1 14
-40 -13 -21 -14 -54 -28 -76 -31 -38 -7 -48 -17 -26 -30 6 -4 8 -3 5 3 -4 7
11 11 42 11 27 0 63 7 80 15 17 9 29 11 25 5 -4 -6 3 -8 17 -6 13 1 29 14 35
26 6 13 17 29 23 35 14 14 14 30 1 22 -7 -4 -8 3 -4 21 6 21 4 25 -7 19 -8 -5
-10 -4 -6 0 15 18 35 13 30 -6 -4 -15 -2 -18 11 -13 10 4 15 12 12 19 -5 15
21 55 36 55 6 0 1 -11 -12 -25 -36 -39 -7 -30 33 10 24 24 33 41 30 55 -4 16
0 20 21 20 14 0 26 5 26 10 0 6 12 15 26 20 33 13 21 34 -15 25 -25 -6 -26 -6
-6 10 l20 17 -20 -7 c-16 -5 -17 -4 -8 6 10 10 17 8 36 -9 27 -26 36 -27 72
-8 15 8 33 12 40 10 7 -3 18 9 25 27 8 18 16 27 18 21 5 -15 32 -16 32 -1 0 9
24 10 85 5 62 -5 85 -4 85 5 0 7 4 8 13 2 6 -5 26 -6 42 -2 21 5 24 7 10 9
-11 1 -46 5 -77 9 -32 4 -58 3 -58 -1 0 -4 -26 -7 -57 -6 l-58 1 55 7 55 7
-55 0 c-30 1 -87 -5 -127 -12z m17 -9 c0 -3 -4 -8 -10 -11 -5 -3 -10 -1 -10 4
0 6 5 11 10 11 6 0 10 -2 10 -4z m-95 -36 c-3 -5 -11 -10 -16 -10 -6 0 -7 5
-4 10 3 6 11 10 16 10 6 0 7 -4 4 -10z m-195 -170 c0 -5 -5 -10 -11 -10 -5 0
-7 5 -4 10 3 6 8 10 11 10 2 0 4 -4 4 -10z m-140 -155 c-33 -19 -49 -19 -24 0
10 8 26 14 34 14 9 0 4 -6 -10 -14z"/>
<path d="M2410 1980 c8 -5 22 -10 30 -10 13 0 13 1 0 10 -8 5 -22 10 -30 10
-13 0 -13 -1 0 -10z"/>
<path d="M2474 1957 c-7 -9 5 -12 50 -13 58 -1 56 2 -14 19 -14 3 -30 0 -36
-6z"/>
<path d="M2625 1925 c22 -8 49 -13 60 -13 11 0 -2 6 -30 14 -63 17 -84 16 -30
-1z"/>
<path d="M2588 1913 c7 -3 16 -2 19 1 4 3 -2 6 -13 5 -11 0 -14 -3 -6 -6z"/>
<path d="M3694 1901 c-18 -11 -78 -65 -135 -120 -120 -117 -187 -165 -252
-182 -101 -25 -200 9 -368 127 -107 75 -150 98 -223 119 -107 31 -248 2 -391
-81 -65 -38 -116 -83 -265 -233 -212 -213 -253 -249 -335 -289 -155 -75 -243
-67 -430 43 -152 89 -185 100 -300 100 -89 -1 -106 -4 -153 -29 -73 -37 -130
-92 -214 -205 -92 -125 -122 -156 -186 -198 -67 -44 -134 -53 -216 -29 -49 15
-148 61 -181 86 -5 4 -18 10 -27 13 -17 6 -18 -22 -18 -508 l0 -515 1875 0
1875 0 0 960 c0 761 -3 960 -12 960 -7 0 -27 -9 -44 -19z"/>
<path d="M1800 1860 c0 -5 5 -10 10 -10 6 0 10 5 10 10 0 6 -4 10 -10 10 -5 0
-10 -4 -10 -10z"/>
<path d="M920 1736 c-109 -31 -213 -95 -203 -124 4 -15 3 -15 -6 -2 -9 13 -15
11 -38 -15 -55 -59 -57 -63 -42 -82 13 -16 12 -17 -4 -4 -16 12 -21 10 -51
-25 -40 -46 -38 -60 2 -21 25 24 28 25 28 8 0 -11 -4 -17 -8 -15 -5 3 -15 -2
-24 -11 -9 -9 -24 -13 -35 -10 -13 4 -27 -2 -43 -20 -17 -18 -32 -25 -48 -22
-20 4 -20 4 5 6 15 0 27 6 27 12 0 6 -9 8 -20 4 -11 -3 -34 -7 -51 -7 l-31 -1
23 -14 c17 -10 18 -12 4 -7 -36 12 -179 16 -205 5 -19 -8 -3 -9 70 -7 99 4
103 2 29 -14 -40 -8 -39 -9 16 -3 100 9 168 11 155 3 -8 -5 -8 -9 3 -13 10 -4
17 2 20 14 4 15 12 19 31 15 14 -3 26 0 26 5 0 5 9 9 20 9 30 0 121 101 114
128 -1 7 0 8 3 2 2 -5 12 -10 21 -10 12 0 13 3 5 11 -9 9 -6 17 13 32 17 13
22 22 14 27 -6 4 6 10 29 13 22 3 53 14 70 26 16 12 37 21 48 21 10 0 25 5 33
10 13 9 13 10 0 11 -44 2 66 26 130 28 49 1 80 7 91 17 9 8 24 12 35 8 16 -6
17 -5 6 7 -18 19 -201 23 -262 5z m103 -13 c-13 -2 -33 -2 -45 0 -13 2 -3 4
22 4 25 0 35 -2 23 -4z m-313 -153 c0 -5 -2 -10 -4 -10 -3 0 -8 5 -11 10 -3 6
-1 10 4 10 6 0 11 -4 11 -10z"/>
<path d="M1185 1709 c-15 -7 -9 -8 20 -4 30 4 36 3 25 -5 -12 -8 -8 -9 15 -5
17 3 24 2 17 -1 -13 -6 -7 -24 9 -24 6 0 7 5 3 12 -8 12 -7 12 59 -16 63 -27
41 -10 -29 23 -70 33 -86 35 -119 20z"/>
<path d="M1380 1646 c0 -2 7 -7 16 -10 8 -3 12 -2 9 4 -6 10 -25 14 -25 6z"/>
<path d="M1468 1613 c6 -2 18 -2 25 0 6 3 1 5 -13 5 -14 0 -19 -2 -12 -5z"/>
<path d="M1615 1601 c-18 -4 -25 -9 -18 -14 11 -7 63 7 63 18 0 6 -2 5 -45 -4z"/>
<path d="M193 1363 c9 -2 25 -2 35 0 9 3 1 5 -18 5 -19 0 -27 -2 -17 -5z"/>
</g>
</svg>
